<?xml version="1.0" encoding="utf-8"?>
<!-- Generator: Adobe Illustrator 26.0.3, SVG Export Plug-In . SVG Version: 6.00 Build 0)  -->
<svg version="1.1" id="Layer_1" xmlns="http://www.w3.org/2000/svg" xmlns:xlink="http://www.w3.org/1999/xlink" x="0px" y="0px"
	 viewBox="0 0 970.46 307.06" style="enable-background:new 0 0 970.46 307.06;" xml:space="preserve">
<style type="text/css">
	.st0{fill:#030302;}
	.st1{fill:#E86B4B;}
	.st2{fill:#E86C4B;}
	.st3{fill:#8C8989;}
	.st4{fill:#B5D336;}
	.st5{fill:#FFFEFD;}
	.st6{fill:#FFFFFF;}
	.st7{fill:#190B07;}
	.st8{fill:#88402C;}
	.st9{fill:#171D0A;}
	.st10{fill:#6C8135;}
</style>
<g>
	<path class="st0" d="M78.61,24.63C95.74,14.2,114.14,7.45,134.04,4.1c17.83-3,35.56-2.77,53.02,0.68
		c19.77,3.91,38.21,11.62,55.11,22.96c27.72,18.61,46.65,43.83,58.07,74.84c7.68,20.87,10.03,42.6,7.52,64.52
		c-6.52,56.83-36.6,97.68-88.09,122.04c-24.84,11.76-51.6,15.74-79.5,12.17c-28.03-3.58-53.23-13.57-75.13-30.78
		c-29.09-22.87-47.67-52.64-55.01-89.19c-3.42-17.04-3.87-34.22-1.35-51.12c3.82-25.59,13.75-48.95,29.79-69.68
		c10.12-13.08,22.12-23.9,35.68-33.19C75.2,25.75,77.59,26.31,78.61,24.63z"/>
	<path class="st1" d="M646.16,122.04c8.18-9.68,17.68-15.05,30.26-13.13c13.91,2.12,23.37,12.31,23.6,27.43
		c0.54,35.07,0.18,70.15,0.31,105.23c0.01,3.2-1.47,3.51-4.02,3.45c-5.6-0.12-11.24-0.37-16.81,0.06c-5.11,0.4-6.79-0.9-6.72-6.41
		c0.33-27.1,0.15-54.21,0.14-81.31c0-2.79,0.03-5.59-0.17-8.37c-0.54-7.69-4.83-12.47-11.48-12.95
		c-8.52-0.61-12.38,2.34-14.44,10.83c-0.67,2.76-0.67,5.53-0.67,8.31c-0.01,28.1-0.11,56.2,0.1,84.31c0.03,4.43-1.01,5.94-5.58,5.6
		c-5.77-0.42-11.61-0.24-17.41-0.05c-3.19,0.11-4.6-0.59-4.59-4.21c0.12-42.05,0.1-84.11,0.02-126.16c-0.01-3.26,0.85-4.7,4.37-4.58
		c6.2,0.22,12.42,0.3,18.61-0.02c3.98-0.21,4.85,1.45,4.51,4.9C645.98,117.3,646.16,119.68,646.16,122.04z"/>
	<path class="st1" d="M725.78,175.3c0.34-8.51-0.12-19.65,0.6-30.82c1.46-22.71,20.47-38.98,46.12-35.44
		c20.65,2.85,33.21,16.76,34.42,38.14c0.7,12.32,0.11,24.71,0.35,37.07c0.07,3.77-2.07,3.55-4.59,3.55
		c-14.62-0.03-29.24,0.14-43.85-0.1c-4.27-0.07-6.25,0.73-5.78,5.48c0.44,4.54-0.03,9.17,0.13,13.74
		c0.25,7.09,4.35,11.51,11.31,12.45c7.09,0.96,11.7-1.53,13.78-8.45c1.25-4.14,3.17-5.58,7.47-5.28c5.78,0.4,11.61,0.26,17.41,0.04
		c3.3-0.13,4.04,1.15,3.9,4.19c-0.91,19.31-16.83,35.23-36.29,36.45c-16.63,1.05-30.44-3.55-39.41-18.47
		c-4.7-7.82-5.2-16.64-5.51-25.38C725.55,194.3,725.78,186.12,725.78,175.3z"/>
	<path class="st1" d="M513.72,177.9c-0.15,11.93,0.61,23.86-0.88,35.8c-2.26,18.05-16.44,31.4-34.85,32.61
		c-16.57,1.09-30.47-3.24-39.69-17.96c-4.39-7-5.52-14.98-5.61-22.91c-0.22-20.3-0.75-40.6,0.44-60.91
		c1.33-22.65,20.26-39.18,46.58-35.47c21.69,3.06,32.9,16.75,33.95,40.77C514.06,159.16,513.72,168.54,513.72,177.9z"/>
	<path class="st1" d="M965.7,177.75c-0.17,11.93,0.63,23.86-0.86,35.8c-2.27,18.14-16.35,31.51-34.7,32.76
		c-16.55,1.12-30.49-3.13-39.77-17.81c-4.41-6.98-5.59-14.96-5.68-22.9c-0.24-20.3-0.72-40.6,0.42-60.91
		c1.29-23.09,20.77-39.54,47.03-35.54c21.44,3.26,32.41,16.74,33.5,40.53C966.06,159.01,965.7,168.39,965.7,177.75z"/>
	<path class="st1" d="M377.39,163.62c0-25.31-0.18-50.63,0.14-75.94c0.07-5.49-1.62-6.83-6.78-6.5c-6.78,0.43-13.61-0.03-20.42,0.16
		c-3.3,0.09-4.68-0.85-4.52-4.35c0.25-5.57,0.23-11.17,0-16.74c-0.14-3.35,0.94-4.5,4.38-4.42c9.01,0.21,18.02,0.07,27.03,0.07
		c18.02,0,36.04,0.11,54.06-0.09c3.98-0.04,5.21,1.15,4.98,5.04c-0.31,5.36-0.25,10.77-0.02,16.14c0.15,3.45-1.17,4.45-4.5,4.36
		c-7.2-0.2-14.43,0.24-21.62-0.17c-4.67-0.27-5.59,1.37-5.58,5.73c0.15,50.23,0.12,100.46,0.08,150.69
		c-0.01,8.64,1.02,7.26-7.18,7.38c-4.6,0.07-9.24-0.31-13.81,0.1c-4.88,0.44-6.45-0.98-6.39-6.11
		C377.54,213.85,377.39,188.74,377.39,163.62z"/>
	<path class="st1" d="M566.83,124.4c9.36-7.79,18.04-14.05,29.29-15.5c6.65-0.85,6.76-0.9,6.77,5.65c0.01,7.36,0,14.71,0,22.46
		c-9.26-1.97-17.8-1.38-25.25,4.31c-7.52,5.73-10.79,13.59-10.8,22.88c-0.01,25.12-0.14,50.24,0.11,75.36
		c0.04,4.57-1.22,5.85-5.67,5.52c-5.38-0.39-10.83-0.38-16.21,0c-4.4,0.31-5.83-0.89-5.76-5.53c0.28-19.33,0.12-38.68,0.12-58.01
		c0-21.93,0.12-43.86-0.1-65.79c-0.05-4.51,1.25-5.97,5.75-5.68c5.78,0.37,11.62,0.26,17.42,0.03c3.42-0.14,4.68,1.01,4.39,4.41
		C566.63,117.41,566.83,120.35,566.83,124.4z"/>
	<path class="st1" d="M831.53,177.36c0-20.54,0.13-41.08-0.1-61.61c-0.05-4.51,1.25-5.98,5.76-5.68c5.58,0.37,11.22,0.31,16.82,0.01
		c3.95-0.21,5.05,1.08,5.02,5.03c-0.18,26.32-0.09,52.64-0.09,78.96c0,15.35-0.14,30.71,0.09,46.06c0.06,3.95-1.1,5.17-5.01,4.94
		c-5.39-0.32-10.84-0.4-16.21,0.02c-4.87,0.38-6.48-0.96-6.4-6.11C831.72,218.44,831.53,197.9,831.53,177.36z"/>
	<path class="st2" d="M859.02,69.26c-0.41,4.44,1.78,10.05-0.88,12.78c-2.94,3.03-8.7,0.96-13.21,1.01
		c-13.39,0.15-13.49,0.05-13.34-13.27c0.05-4.49-2.05-10.23,1.05-13.13c2.77-2.59,8.39-0.74,12.75-0.72
		c4.33,0.03,9.88-1.89,12.66,0.83C860.85,59.53,858.49,65.08,859.02,69.26z"/>
	<path class="st3" d="M78.61,24.63c-0.78,2.06-2.66,2.32-4.45,2.73C74.78,25.07,76.69,24.85,78.61,24.63z"/>
	<path class="st1" d="M248.24,49.39c-10.2,2.25-19.8,5.38-28.71,10.4c-21.13,11.92-30.54,31.15-34.07,54.04
		c-2.85,18.52-3.17,37.33-6.74,55.77c-3.69,19.05-10.06,36.82-24.04,51.11c-10.71,10.95-23.86,17.44-38.71,20.11
		c-27.01,4.86-52.23,0.92-73.94-17.16c-9.59-7.99-12.85-19.62-16.16-30.76C5.35,123.8,37.58,53.42,104.16,25.76
		c50.48-20.97,98.27-13.2,141.66,20.16C246.77,46.65,247.77,47.34,248.24,49.39z"/>
	<path class="st4" d="M75.66,262.07c1.98-1.13,3.8,0.17,5.69,0.38c38.44,4.32,72.53-3.73,97.93-35.12
		c11.04-13.64,16.22-29.95,19.51-46.95c3.42-17.65,3.72-35.66,6.33-53.4c2.17-14.78,6.25-28.81,16.51-40.29
		c10.58-11.84,24.48-17.46,39.56-20.98c3.78-0.88,5.48,1.23,7.34,3.69c13.16,17.51,21.83,37.02,25.67,58.53
		c10.78,60.36-18.83,120.24-74.19,147.27c-48.58,23.72-96,19.44-141.29-9.77c-1-0.64-1.92-1.41-2.81-2.2
		C75.69,263.01,75.74,262.5,75.66,262.07z"/>
	<path class="st5" d="M766.85,166.7c-13.72,0-13.74,0-13.69-13.07c0.01-2.77-0.2-5.54,0.68-8.29c2.21-6.94,6.97-10.03,14.67-9.28
		c6.02,0.59,10.31,5,11.02,11.49c0.2,1.77,0.16,3.59,0.08,5.38c-0.18,4.35,1.8,9.89-0.79,12.74
		C776.13,168.63,770.47,166.24,766.85,166.7z"/>
	<path class="st6" d="M486.3,177.94c0,9.17,0.09,18.34-0.02,27.51c-0.1,8.7-5.04,13.93-12.97,14.02
		c-7.86,0.09-13.29-5.11-13.39-13.68c-0.21-18.73-0.2-37.47-0.01-56.21c0.09-8.64,5.31-13.61,13.36-13.57
		c8.13,0.05,12.89,5,13,13.82C486.39,159.2,486.3,168.57,486.3,177.94z"/>
	<path class="st6" d="M938.29,177.53c0,9.17,0.07,18.34-0.02,27.51c-0.08,9.08-5.05,14.45-13.17,14.43
		c-8.04-0.02-13.17-5.42-13.23-14.47c-0.13-18.34-0.15-36.68,0.01-55.01c0.08-9.01,5.25-14.08,13.57-13.97
		c8.05,0.11,12.71,5.1,12.81,14.01C938.37,159.19,938.29,168.36,938.29,177.53z"/>
	<path class="st7" d="M39,130.03c4.05-23.22,13.36-44.06,29.34-61.55c27.72-30.33,62.61-43.64,103.49-42.14
		c1.11,0.04,2.45-0.34,3.44,1.5c-6.74,0.91-13.29,1.77-19.84,2.68c-57.68,8-92.83,42.19-111.71,95.28
		c-0.78,2.21-1.58,4.41-2.36,6.62c-0.73,0.74-0.35,3.06-1.86,2.29C37.67,133.77,38.49,131.69,39,130.03z"/>
	<path class="st8" d="M39,130.03c0.22,1.24,0.44,2.47,0.67,3.71c0.56-0.44,1.13-0.88,1.69-1.32c0.31,2.37,0.21,4.63-1.97,6.7
		C37.27,136.03,37.46,133.07,39,130.03z"/>
	<path class="st9" d="M236.18,242.53c17.38-14.61,29.12-33.2,37.7-53.85c8.55-20.57,11.62-42.13,9.92-65.5
		c16.02,30.58-7.2,90.95-45.25,120.48C237.05,244.77,236.22,244.49,236.18,242.53z"/>
	<path class="st10" d="M236.18,242.53c0.43,1.12,1.42,1.09,2.37,1.13c-0.36,0.44-0.64,1.12-1.1,1.28c-2.24,0.8-4.47,5.18-6.06,2.8
		C229.67,245.18,234.09,243.99,236.18,242.53z"/>
</g>
</svg>
