<?xml version="1.0" encoding="utf-8"?>
<!-- Generator: Adobe Illustrator 26.0.3, SVG Export Plug-In . SVG Version: 6.00 Build 0)  -->
<svg version="1.1" id="Layer_1" xmlns="http://www.w3.org/2000/svg" xmlns:xlink="http://www.w3.org/1999/xlink" x="0px" y="0px"
	 viewBox="0 0 317.04 308.53" style="enable-background:new 0 0 317.04 308.53;" xml:space="preserve">
<style type="text/css">
	.st0{fill:#030302;}
	.st1{fill:#8C8989;}
	.st2{fill:#E86B4B;}
	.st3{fill:#B5D336;}
	.st4{fill:#190B07;}
	.st5{fill:#88402C;}
	.st6{fill:#171D0A;}
	.st7{fill:#6C8135;}
</style>
<g>
	<path class="st0" d="M78.61,26.1c17.13-10.43,35.53-17.18,55.43-20.53c17.83-3,35.56-2.77,53.02,0.68
		c19.77,3.91,38.21,11.62,55.11,22.96c27.72,18.61,46.65,43.83,58.07,74.84c7.68,20.87,10.03,42.6,7.52,64.52
		c-6.52,56.83-36.6,97.68-88.09,122.04c-24.84,11.76-51.6,15.74-79.5,12.17c-28.03-3.58-53.23-13.57-75.13-30.78
		c-29.09-22.87-47.67-52.64-55.01-89.19c-3.42-17.04-3.87-34.22-1.35-51.12c3.82-25.59,13.75-48.95,29.79-69.68
		c10.12-13.08,22.12-23.9,35.68-33.19C75.2,27.22,77.59,27.78,78.61,26.1z"/>
	<path class="st1" d="M78.61,26.1c-0.78,2.06-2.66,2.32-4.45,2.73C74.78,26.54,76.69,26.32,78.61,26.1z"/>
	<path class="st2" d="M248.24,50.86c-10.2,2.25-19.8,5.38-28.71,10.4c-21.13,11.92-30.54,31.15-34.07,54.04
		c-2.85,18.52-3.17,37.33-6.74,55.77c-3.69,19.05-10.06,36.82-24.04,51.11c-10.71,10.95-23.86,17.44-38.71,20.11
		c-27.01,4.86-52.23,0.92-73.94-17.16c-9.59-7.99-12.85-19.62-16.16-30.76C5.35,125.27,37.58,54.89,104.16,27.23
		c50.48-20.97,98.27-13.2,141.66,20.16C246.77,48.12,247.77,48.81,248.24,50.86z"/>
	<path class="st3" d="M75.66,263.54c1.98-1.13,3.8,0.17,5.69,0.38c38.44,4.32,72.53-3.73,97.93-35.12
		c11.04-13.64,16.22-29.95,19.51-46.95c3.42-17.65,3.72-35.66,6.33-53.4c2.17-14.78,6.25-28.81,16.51-40.29
		c10.58-11.84,24.48-17.46,39.56-20.98c3.78-0.88,5.48,1.23,7.34,3.69c13.16,17.51,21.83,37.02,25.67,58.53
		c10.78,60.36-18.83,120.24-74.19,147.27c-48.58,23.72-96,19.44-141.29-9.77c-1-0.64-1.92-1.41-2.81-2.2
		C75.69,264.48,75.74,263.97,75.66,263.54z"/>
	<path class="st4" d="M39,131.5c4.05-23.22,13.36-44.06,29.34-61.55c27.72-30.33,62.61-43.64,103.49-42.14
		c1.11,0.04,2.45-0.34,3.44,1.5c-6.74,0.91-13.29,1.77-19.84,2.68c-57.68,8-92.83,42.19-111.71,95.28
		c-0.78,2.21-1.58,4.41-2.36,6.62c-0.73,0.74-0.35,3.06-1.86,2.29C37.67,135.24,38.49,133.16,39,131.5z"/>
	<path class="st5" d="M39,131.5c0.22,1.24,0.44,2.47,0.67,3.71c0.56-0.44,1.13-0.88,1.69-1.32c0.31,2.37,0.21,4.63-1.97,6.7
		C37.27,137.5,37.46,134.54,39,131.5z"/>
	<path class="st6" d="M236.18,244c17.38-14.61,29.12-33.2,37.7-53.85c8.55-20.57,11.62-42.13,9.92-65.5
		c16.02,30.58-7.2,90.95-45.25,120.48C237.05,246.24,236.22,245.96,236.18,244z"/>
	<path class="st7" d="M236.18,244c0.43,1.12,1.42,1.09,2.37,1.13c-0.36,0.44-0.64,1.12-1.1,1.28c-2.24,0.8-4.47,5.18-6.06,2.8
		C229.67,246.65,234.09,245.46,236.18,244z"/>
</g>
</svg>
